<?xml version="1.0" standalone="no"?>
<!DOCTYPE svg PUBLIC "-//W3C//DTD SVG 20010904//EN"
 "http://www.w3.org/TR/2001/REC-SVG-20010904/DTD/svg10.dtd">
<svg version="1.0" xmlns="http://www.w3.org/2000/svg"
 width="625.000000pt" height="625.000000pt" viewBox="0 0 625.000000 625.000000"
 preserveAspectRatio="xMidYMid meet">
<metadata>
Created by potrace 1.14, written by Peter Selinger 2001-2017
</metadata>
<g transform="translate(0.000000,625.000000) scale(0.100000,-0.100000)"
fill="#000000" stroke="none">
<path d="M2919 6246 c-2 -2 -38 -6 -79 -9 -500 -40 -1052 -237 -1470 -526 -78
-54 -214 -156 -254 -191 -186 -163 -343 -326 -459 -479 -32 -42 -63 -83 -70
-91 -56 -70 -227 -358 -279 -470 -9 -19 -29 -64 -46 -100 -96 -209 -197 -560
-227 -790 -4 -30 -9 -63 -11 -74 -19 -103 -26 -544 -11 -686 33 -310 99 -583
204 -849 339 -859 1046 -1529 1920 -1820 147 -49 417 -114 523 -126 30 -3 62
-8 70 -10 103 -27 614 -27 797 1 97 14 277 46 283 49 4 2 20 6 36 9 55 10 239
65 339 101 621 224 1162 647 1536 1200 29 44 59 89 65 100 6 11 28 49 49 84
65 111 181 361 230 496 42 115 115 378 128 460 3 17 10 59 16 95 28 169 35
276 36 495 0 184 -11 389 -20 406 -2 3 -6 30 -9 60 -3 30 -8 65 -11 79 -3 14
-8 41 -11 60 -15 88 -80 325 -124 449 -91 256 -194 463 -343 686 -381 570
-936 1001 -1582 1225 -175 61 -466 128 -625 145 -36 4 -74 9 -85 12 -22 5
-511 14 -516 9z m477 -111 c36 -3 73 -8 82 -10 9 -1 40 -6 67 -9 106 -14 133
-18 237 -42 1294 -292 2246 -1385 2354 -2704 13 -158 7 -504 -11 -613 -8 -46
-16 -103 -21 -137 -2 -19 -6 -42 -9 -50 -2 -8 -7 -31 -10 -50 -15 -93 -95
-372 -130 -455 -6 -16 -29 -70 -50 -120 -82 -199 -218 -437 -351 -616 -160
-215 -316 -376 -559 -578 -105 -87 -367 -254 -498 -317 -37 -18 -73 -36 -80
-41 -7 -5 -55 -27 -107 -47 -52 -21 -108 -44 -125 -51 -35 -15 -161 -55 -260
-84 -97 -28 -285 -67 -375 -78 -25 -2 -56 -6 -70 -8 -167 -20 -460 -26 -585
-13 -233 25 -336 42 -500 82 -1063 262 -1913 1100 -2190 2158 -19 73 -37 149
-40 168 -3 19 -8 42 -10 50 -13 46 -29 167 -41 325 -14 164 -7 479 12 605 21
138 48 279 69 360 14 52 27 105 30 117 9 38 76 225 111 311 233 564 665 1074
1186 1398 89 56 348 191 434 227 282 118 650 205 944 223 58 4 106 8 108 9 5
4 327 -3 388 -10z"/>
<path d="M4620 4279 c-337 -19 -570 -133 -664 -325 -75 -153 -67 -374 18 -499
67 -99 245 -189 651 -328 182 -62 293 -106 368 -143 197 -99 340 -275 381
-469 27 -130 12 -305 -34 -395 -11 -22 -17 -40 -13 -40 19 0 106 112 137 175
42 87 58 153 58 247 1 150 -30 263 -106 377 -101 151 -232 237 -526 345 -382
139 -464 172 -560 218 -178 87 -247 176 -243 314 5 192 249 336 558 329 178
-4 272 -24 400 -84 192 -90 291 -232 295 -418 0 -18 6 -23 25 -23 27 0 26 -2
28 135 1 143 -16 491 -24 496 -19 11 -332 68 -434 79 -146 15 -187 16 -315 9z"/>
<path d="M492 4240 c2 -15 19 -28 60 -44 112 -46 228 -153 329 -306 57 -87 82
-132 209 -375 40 -77 80 -153 90 -170 10 -16 50 -93 90 -170 40 -77 89 -171
110 -210 20 -38 65 -124 100 -190 34 -66 80 -151 100 -190 20 -38 61 -115 90
-170 29 -55 74 -140 100 -190 26 -49 76 -144 110 -210 178 -340 168 -332 230
-199 26 54 38 90 32 98 -5 6 -49 88 -97 181 -49 94 -107 206 -130 250 -23 44
-77 148 -120 230 -43 83 -86 164 -95 180 -10 17 -52 98 -95 180 -43 83 -101
195 -130 250 -29 55 -101 192 -160 305 -59 113 -127 241 -150 285 -67 127
-197 376 -217 418 -10 20 -26 38 -36 39 -43 3 -74 6 -176 12 -61 4 -141 9
-179 12 -65 4 -68 4 -65 -16z"/>
<path d="M1527 4253 c-4 -3 -196 -15 -295 -18 -57 -1 -105 -5 -108 -8 -3 -3
46 -104 109 -224 63 -120 149 -285 192 -368 43 -82 97 -186 120 -230 23 -44
77 -147 120 -230 100 -193 174 -335 240 -460 29 -55 85 -163 125 -240 137
-264 202 -385 206 -385 2 0 34 62 70 138 113 235 179 373 239 497 32 66 83
174 115 240 32 66 81 170 110 230 165 346 314 645 361 722 68 114 170 216 267
266 52 28 72 44 72 58 0 21 11 21 -180 2 -129 -13 -365 -7 -531 13 -45 6 -49
4 -49 -15 0 -16 10 -26 35 -37 100 -42 152 -134 142 -253 -9 -104 -47 -201
-222 -566 -102 -213 -178 -371 -205 -430 -15 -33 -60 -127 -100 -210 -40 -82
-83 -174 -97 -204 -14 -29 -28 -49 -32 -45 -5 5 -33 56 -63 114 -64 121 -305
576 -409 772 -300 565 -340 743 -184 818 30 14 45 28 45 41 0 16 -7 18 -46 16
-25 -1 -46 -3 -47 -4z"/>
<path d="M3711 3758 c-66 -139 -80 -257 -47 -405 13 -60 75 -168 136 -237 33
-38 134 -109 190 -134 107 -49 216 -90 420 -158 313 -105 498 -199 559 -284
104 -143 81 -358 -51 -489 -207 -205 -589 -190 -861 35 -146 119 -229 271
-252 457 -5 41 -9 47 -29 47 -16 0 -26 -7 -30 -22 -7 -27 0 -421 8 -458 4 -14
7 -80 8 -147 1 -138 -5 -129 93 -138 33 -3 132 -19 220 -36 168 -31 181 -33
285 -48 97 -14 303 -7 385 13 162 41 283 126 375 262 87 131 120 281 94 432
-43 244 -230 385 -719 545 -378 123 -481 173 -582 280 -82 86 -139 189 -158
284 -14 67 -16 162 -6 217 6 33 9 61 7 64 -3 2 -23 -34 -45 -80z"/>
</g>
</svg>
